<?xml version="1.0" standalone="no"?>
<!DOCTYPE svg PUBLIC "-//W3C//DTD SVG 20010904//EN"
 "http://www.w3.org/TR/2001/REC-SVG-20010904/DTD/svg10.dtd">
<svg version="1.0" xmlns="http://www.w3.org/2000/svg"
 width="1024.000000pt" height="1024.000000pt" viewBox="0 0 1024.000000 1024.000000"
 preserveAspectRatio="xMidYMid meet">
<metadata>
Created by potrace 1.16, written by Peter Selinger 2001-2019
</metadata>
<g transform="translate(0.000000,1024.000000) scale(0.100000,-0.100000)"
fill="white" stroke="none">
<path d="M3820 7977 c-152 -36 -266 -144 -316 -301 -50 -158 -53 -375 -7 -563
3 -14 1 -23 -7 -23 -32 0 -83 -36 -96 -66 -23 -54 1 -95 64 -109 17 -3 32 -10
32 -14 0 -4 -25 -31 -56 -61 -153 -150 -228 -325 -180 -419 16 -31 56 -61 81
-61 23 0 18 -18 -24 -89 -64 -108 -124 -267 -156 -411 -21 -100 -31 -390 -16
-500 28 -211 89 -339 181 -382 47 -22 49 -25 50 -63 1 -98 58 -287 108 -360
15 -21 42 -48 60 -58 29 -17 39 -18 72 -8 23 7 49 25 64 43 l25 32 23 -29
c128 -166 270 -288 423 -365 92 -46 108 -51 159 -49 52 2 61 -1 104 -34 59
-45 157 -91 237 -112 68 -17 217 -20 247 -4 16 8 31 6 71 -12 73 -33 191 -33
264 0 44 19 55 21 75 10 33 -18 181 -15 257 5 73 20 165 64 229 110 34 24 55
31 95 32 148 3 415 186 566 386 l43 57 32 -34 c35 -36 72 -51 110 -41 81 20
172 217 192 415 6 63 9 70 31 76 128 32 213 267 213 589 0 247 -40 418 -150
643 -39 79 -70 145 -70 147 0 2 13 9 29 14 16 6 41 27 56 47 22 29 28 46 27
83 -2 101 -51 191 -171 315 -67 70 -82 90 -71 97 8 6 20 10 26 10 6 0 23 9 38
21 54 42 19 131 -57 146 -24 5 -27 9 -23 32 24 123 29 174 29 296 -1 219 -50
362 -155 461 -202 189 -553 130 -822 -140 -41 -40 -72 -64 -74 -57 -11 34 -68
82 -120 101 -47 18 -72 21 -147 17 -125 -6 -190 -32 -266 -108 -33 -33 -59
-53 -59 -46 0 14 -48 63 -95 95 -124 84 -348 81 -436 -7 -20 -20 -38 -42 -40
-50 -3 -9 -27 10 -68 52 -105 109 -249 199 -375 233 -75 20 -194 25 -256 11z
m211 -251 c130 -40 220 -112 268 -214 17 -39 39 -76 48 -83 28 -24 86 -12 216
45 159 70 194 78 257 62 74 -19 124 -65 167 -154 47 -99 68 -122 108 -122 39
0 69 30 90 91 24 66 65 120 120 154 43 26 57 30 124 30 72 0 83 -3 204 -59
179 -83 233 -78 267 24 38 116 235 240 379 240 156 -1 230 -134 218 -394 -3
-67 -15 -163 -27 -216 -48 -210 -50 -194 37 -296 96 -112 223 -297 211 -309
-2 -2 -31 7 -64 20 -114 47 -194 22 -194 -60 0 -30 11 -46 73 -113 99 -104
139 -162 196 -284 89 -187 128 -384 118 -598 -5 -109 -13 -162 -33 -220 -3 -9
-21 16 -47 65 -23 44 -61 99 -84 123 -37 37 -48 42 -86 42 -94 0 -123 -69 -72
-170 88 -173 106 -359 54 -545 l-11 -40 -17 34 c-21 45 -63 75 -106 75 -43 0
-69 -24 -105 -95 -52 -103 -143 -209 -256 -300 -67 -53 -80 -59 -64 -30 5 11
10 40 10 66 0 58 -32 95 -82 95 -45 -1 -68 -22 -124 -114 -83 -139 -205 -248
-311 -281 -20 -5 -23 -3 -23 20 0 35 -42 75 -78 75 -16 0 -75 -23 -131 -50
-171 -85 -208 -84 -374 3 -49 26 -102 47 -118 47 -35 0 -79 -39 -79 -70 0 -29
-24 -25 -99 17 -81 45 -183 147 -234 233 -58 100 -68 111 -114 117 -36 5 -45
2 -68 -21 -25 -25 -27 -33 -23 -87 2 -32 3 -59 1 -59 -2 0 -34 24 -72 54 -97
77 -180 173 -225 257 -21 41 -48 84 -59 96 -46 52 -121 33 -159 -40 l-21 -42
-20 60 c-11 36 -21 103 -24 165 -6 132 12 224 67 338 41 87 48 119 29 154 -14
27 -67 47 -103 41 -43 -9 -106 -77 -151 -165 -22 -42 -43 -74 -47 -70 -3 4
-14 45 -24 91 -19 96 -16 332 6 431 56 256 144 432 291 586 60 62 69 77 69
108 0 26 -7 44 -26 63 -23 23 -31 25 -75 20 -27 -3 -70 -15 -96 -27 -25 -11
-48 -18 -50 -16 -14 14 117 212 201 305 89 97 91 105 66 212 -66 282 -64 487
6 606 47 81 161 113 275 79z"/>
<path d="M3915 7446 c-63 -63 -33 -225 49 -265 61 -29 146 27 146 96 0 48 -30
122 -65 158 -41 44 -93 48 -130 11z"/>
<path d="M6152 7442 c-50 -53 -78 -174 -52 -223 27 -50 114 -60 159 -18 51 48
73 164 42 222 -29 53 -108 63 -149 19z"/>
<path d="M5589 6520 c-70 -21 -99 -60 -99 -136 0 -41 5 -51 39 -85 32 -33 45
-39 80 -39 54 0 97 22 121 63 59 97 -35 228 -141 197z"/>
<path d="M4507 6499 c-76 -57 -73 -171 5 -219 76 -46 175 -5 199 82 13 51 -15
119 -60 142 -43 23 -110 20 -144 -5z"/>
<path d="M4990 6300 c-212 -45 -273 -208 -131 -351 43 -42 70 -60 115 -75 68
-23 82 -39 72 -80 -11 -43 -102 -126 -161 -147 -66 -23 -158 -22 -211 2 -39
18 -94 75 -94 98 0 23 -39 45 -68 39 -29 -7 -115 -88 -164 -156 -95 -131 -143
-312 -103 -389 16 -32 33 -41 75 -41 43 0 73 34 131 149 29 57 59 105 66 108
7 3 25 -4 40 -14 15 -11 42 -25 59 -32 30 -12 31 -15 37 -82 12 -141 98 -268
220 -324 77 -36 149 -48 263 -43 90 4 110 9 175 40 81 38 158 106 189 169 26
50 50 143 50 191 0 37 2 38 67 68 77 35 65 43 130 -88 62 -124 81 -144 135
-140 119 9 116 186 -7 383 -82 132 -176 218 -219 202 -8 -3 -27 -29 -42 -58
-39 -72 -91 -99 -188 -99 -54 0 -83 6 -121 24 -86 40 -166 137 -149 181 4 9
35 29 71 45 90 41 138 82 169 145 22 46 25 62 19 102 -10 66 -77 134 -155 157
-67 21 -209 29 -270 16z m143 -814 c43 -32 103 -62 155 -75 34 -10 42 -16 42
-36 0 -66 -57 -136 -133 -161 -65 -22 -166 -15 -224 15 -52 26 -95 88 -97 137
-1 35 0 36 63 59 36 13 83 37 105 54 23 16 45 30 49 30 5 1 23 -10 40 -23z"/>
<path d="M4235 3634 c-16 -8 -38 -23 -48 -32 -20 -18 -440 -852 -451 -895 -22
-91 61 -176 152 -156 46 10 76 41 120 121 l36 68 266 0 266 0 30 -62 c16 -34
43 -77 60 -95 28 -29 38 -33 82 -33 43 0 57 5 86 31 40 34 58 86 47 127 -12
40 -389 800 -424 854 -17 25 -47 56 -68 67 -44 25 -112 27 -154 5z m144 -458
c33 -74 61 -142 61 -151 0 -13 -19 -15 -130 -15 -112 0 -130 2 -130 16 0 24
121 294 130 289 4 -2 35 -65 69 -139z"/>
<path d="M5214 3636 c-17 -7 -41 -26 -53 -42 l-22 -27 3 -473 3 -473 29 -30
c74 -78 197 -47 225 55 7 25 11 192 11 464 0 385 -2 428 -18 459 -33 67 -113
97 -178 67z"/>
<path d="M5763 3634 c-70 -35 -68 -17 -68 -535 l0 -466 28 -36 c44 -58 118
-68 181 -24 46 32 56 71 56 218 0 72 4 129 9 127 11 -4 156 -161 234 -253 76
-90 111 -115 160 -115 56 0 96 25 118 73 38 85 30 102 -161 317 -74 83 -138
157 -142 164 -5 8 41 67 125 161 168 187 182 207 181 257 -3 100 -128 162
-206 102 -13 -9 -67 -70 -120 -133 -54 -64 -120 -141 -148 -171 l-49 -55 -1
145 c0 164 -10 193 -73 223 -44 21 -83 21 -124 1z"/>
<path d="M6753 3634 c-21 -10 -40 -32 -54 -61 -19 -40 -20 -49 -10 -85 7 -22
39 -79 70 -127 80 -118 216 -333 235 -370 12 -23 16 -62 16 -168 0 -164 9
-201 56 -242 46 -41 117 -44 162 -6 54 45 62 77 62 242 l0 148 34 60 c49 88
135 229 215 350 77 117 85 145 53 204 -36 67 -118 89 -182 50 -45 -28 -42 -24
-161 -222 l-100 -168 -89 148 c-48 81 -102 166 -118 189 -50 68 -123 90 -189
58z"/>
<path d="M2738 3624 c-55 -29 -56 -31 -59 -524 -5 -519 -7 -504 77 -541 36
-17 50 -18 83 -9 80 21 111 80 111 213 l0 77 44 0 c51 0 51 0 189 -162 94
-111 143 -143 202 -132 70 13 123 85 108 146 -8 31 -62 103 -117 158 -25 24
-46 49 -46 55 0 6 16 19 35 29 123 66 199 244 165 387 -37 157 -140 263 -295
304 -83 21 -457 21 -497 -1z m481 -280 c70 -58 59 -179 -20 -220 -19 -10 -62
-14 -139 -14 l-110 0 0 130 0 130 119 0 c114 0 121 -1 150 -26z"/>
<path d="M3755 2280 c-80 -17 -109 -61 -103 -153 4 -55 8 -64 41 -93 46 -39
96 -48 148 -28 47 19 59 48 31 76 -16 16 -23 18 -40 9 -31 -16 -57 -13 -77 9
-20 23 -23 63 -5 85 15 18 61 20 78 3 10 -10 18 -6 39 15 l27 27 -20 21 c-25
25 -78 38 -119 29z"/>
<path d="M3972 2278 c-17 -17 -17 -249 0 -266 16 -16 58 -15 63 1 2 6 6 29 10
50 5 34 9 37 39 37 31 0 33 -2 42 -47 8 -43 12 -48 38 -51 16 -2 32 2 37 10
10 15 12 228 3 252 -4 10 -18 16 -35 16 -33 0 -49 -23 -49 -69 0 -28 -3 -31
-34 -31 -31 0 -34 2 -39 40 -8 63 -43 90 -75 58z"/>
<path d="M4392 2280 c-118 -28 -140 -209 -33 -265 64 -33 150 -13 190 44 80
112 -21 254 -157 221z"/>
<path d="M4652 2278 c-20 -20 -13 -68 26 -173 31 -83 41 -101 60 -103 32 -5
47 11 62 63 17 59 26 63 40 18 19 -59 38 -83 65 -83 30 0 42 22 79 144 29 95
28 130 -4 139 -28 7 -45 -13 -66 -75 -10 -32 -19 -47 -23 -38 -3 8 -12 35 -21
60 -13 40 -18 45 -45 45 -27 0 -32 -5 -45 -45 -9 -25 -18 -52 -21 -60 -3 -9
-13 8 -23 40 -24 72 -55 97 -84 68z"/>
<path d="M5339 2281 c-71 -22 -99 -61 -99 -136 0 -89 53 -145 137 -145 57 0
93 21 93 55 0 31 -32 50 -59 35 -31 -16 -59 -12 -75 12 -21 30 -20 61 2 81 20
19 67 23 77 7 9 -15 55 19 55 41 0 35 -79 66 -131 50z"/>
<path d="M5556 2268 c-12 -17 -16 -47 -16 -120 0 -120 9 -148 49 -148 32 0 41
14 41 66 0 32 2 34 35 34 30 0 35 -3 35 -24 0 -14 4 -37 10 -51 8 -22 15 -26
42 -23 l33 3 3 132 c2 124 1 133 -18 143 -34 18 -60 -3 -60 -50 0 -40 0 -40
-40 -40 -38 0 -40 1 -40 33 0 39 -8 52 -37 61 -16 5 -25 1 -37 -16z"/>
<path d="M5950 2268 c-58 -30 -83 -75 -77 -142 4 -43 10 -55 45 -88 36 -33 47
-38 90 -38 59 0 106 28 133 80 24 45 24 81 -1 130 -36 70 -117 95 -190 58z"/>
<path d="M6227 2278 c-25 -13 -21 -50 14 -158 36 -109 43 -120 74 -120 29 0
40 14 54 68 7 23 16 42 21 42 4 0 16 -22 25 -49 16 -49 29 -61 65 -61 25 0 36
22 76 145 34 105 33 128 -6 140 -28 9 -44 -7 -60 -57 -20 -64 -25 -64 -46 -6
-17 47 -23 53 -50 56 -34 3 -47 -15 -59 -82 -9 -44 -19 -39 -34 16 -17 65 -40
86 -74 66z"/>
</g>
</svg>
